<svg xmlns="http://www.w3.org/2000/svg" version="1.1" xmlns:xlink="http://www.w3.org/1999/xlink" xmlns:svgjs="http://svgjs.dev/svgjs" width="1500" height="1500" viewBox="0 0 1500 1500"><rect width="1500" height="1500" fill="#000000"></rect><g transform="matrix(0.3698224852071006,0,0,0.3698224852071006,473.1880314792504,250.40485829959528)"><svg viewBox="0 0 137 247" data-background-color="#ffffff" preserveAspectRatio="xMidYMid meet" height="2704" width="1500" xmlns="http://www.w3.org/2000/svg" xmlns:xlink="http://www.w3.org/1999/xlink"><g id="tight-bounds" transform="matrix(1,0,0,1,-0.13703992361689643,-0.09999999999999432)"><svg viewBox="0 0 137.27407984723382 247.2" height="247.2" width="137.27407984723382"><g><svg viewBox="0 0 395.52 712.2433026599535" height="247.2" width="137.27407984723382"><g><svg viewBox="0 0 395.52 466.60166820485836" height="466.60166820485836" width="395.52"><g id="textblocktransform"><svg viewBox="0 0 395.52 466.60166820485836" height="466.60166820485836" width="395.52" id="textblock"><g><svg viewBox="0 0 395.52 217.6296265123619" height="217.6296265123619" width="395.52"><g transform="matrix(1,0,0,1,0,0)"><svg width="395.52" viewBox="5.32 -37.45 92.82 51.07" height="217.6296265123619" data-palette-color="#edbbba"><path d="M24.17 0L5.32 0 5.32-35.77 10.11-35.77 10.11-3.78 24.9-3.78 24.17 0ZM41.65 0.49L41.65 0.49Q38.77 0.49 36.52-0.54 34.27-1.56 32.72-3.3 31.17-5.03 30.36-7.34 29.54-9.64 29.54-12.21L29.54-12.21Q29.54-15.14 30.58-17.71 31.61-20.29 33.46-22.22 35.3-24.15 37.84-25.26 40.38-26.37 43.36-26.37L43.36-26.37Q46.26-26.37 48.53-25.33 50.8-24.29 52.35-22.53 53.9-20.78 54.71-18.47 55.52-16.16 55.52-13.62L55.52-13.62Q55.52-10.67 54.47-8.09 53.42-5.52 51.56-3.61 49.7-1.71 47.17-0.61 44.63 0.49 41.65 0.49ZM42.67-3.22L42.67-3.22Q44.46-3.22 45.91-3.94 47.36-4.66 48.4-5.91 49.44-7.15 50.01-8.85 50.58-10.55 50.58-12.5L50.58-12.5Q50.58-14.43 50.02-16.25 49.46-18.07 48.4-19.49 47.34-20.92 45.8-21.79 44.26-22.66 42.33-22.66L42.33-22.66Q40.55-22.66 39.1-21.94 37.64-21.22 36.61-19.96 35.57-18.7 35-16.99 34.42-15.28 34.42-13.33L34.42-13.33Q34.42-11.4 34.98-9.58 35.54-7.76 36.61-6.35 37.67-4.93 39.19-4.08 40.72-3.22 42.67-3.22ZM58.03 13.62L56.81 11.67Q58.59 10.25 59.7 8.61 60.81 6.96 61.43 5.22 62.06 3.49 62.26 1.72 62.47-0.05 62.47-1.71L62.47-1.71 62.47-25.88 67.11-25.88 67.11-2.64Q67.11-0.39 66.65 1.92 66.18 4.22 65.12 6.37 64.06 8.52 62.31 10.39 60.57 12.26 58.03 13.62L58.03 13.62ZM64.79-31.49L64.79-31.49Q64.18-31.49 63.64-31.71 63.11-31.93 62.71-32.32 62.32-32.71 62.1-33.24 61.88-33.76 61.88-34.4L61.88-34.4Q61.88-35.03 62.13-35.6 62.37-36.16 62.78-36.57 63.18-36.99 63.73-37.22 64.28-37.45 64.89-37.45L64.89-37.45Q65.47-37.45 66-37.22 66.52-36.99 66.91-36.57 67.3-36.16 67.52-35.61 67.74-35.06 67.74-34.45L67.74-34.45Q67.74-33.79 67.5-33.24 67.26-32.69 66.85-32.31 66.45-31.93 65.91-31.71 65.38-31.49 64.79-31.49ZM89.69-3.86L89.69-3.86Q89.08-3.34 88.21-2.6 87.35-1.86 86.26-1.17 85.17-0.49 83.89 0 82.61 0.49 81.17 0.49L81.17 0.49Q79.88 0.49 78.64 0.04 77.41-0.42 76.46-1.31 75.51-2.2 74.93-3.52 74.36-4.83 74.36-6.54L74.36-6.54Q74.36-7.59 74.61-8.67 74.87-9.74 75.48-10.73 76.09-11.72 77.08-12.59 78.07-13.45 79.52-14.1 80.97-14.75 82.95-15.11 84.93-15.48 87.49-15.48L87.49-15.48 89.69-15.48 89.69-17.72Q89.69-18.85 89.3-19.75 88.91-20.65 88.21-21.3 87.52-21.95 86.55-22.3 85.59-22.66 84.42-22.66L84.42-22.66Q83.54-22.66 82.55-22.46 81.56-22.27 80.57-21.9 79.58-21.53 78.68-21.04 77.78-20.56 77.09-19.97L77.09-19.97 76.65-20.21 75.68-23.78Q77.09-24.56 78.41-25.06 79.73-25.56 80.94-25.85 82.15-26.15 83.24-26.26 84.34-26.37 85.34-26.37L85.34-26.37Q89.91-26.37 92.12-24.48 94.33-22.58 94.33-18.8L94.33-18.8 94.33-6.05Q94.33-5.74 94.38-5.29 94.43-4.83 94.61-4.42 94.79-4 95.15-3.71 95.5-3.42 96.11-3.42L96.11-3.42Q96.45-3.42 97.01-3.53 97.58-3.64 98.14-3.91L98.14-3.91 98.14-1.32Q96.97-0.51 95.78-0.01 94.6 0.49 93.5 0.49L93.5 0.49Q92.5 0.49 91.85 0.09 91.2-0.32 90.78-0.95 90.35-1.59 90.1-2.36 89.86-3.13 89.69-3.86ZM89.69-6.98L89.69-12.65 87.83-12.65Q84.98-12.65 83.28-12.24 81.58-11.84 80.69-11.17 79.8-10.5 79.52-9.62 79.24-8.74 79.24-7.79L79.24-7.79Q79.24-6.76 79.53-5.96 79.83-5.15 80.35-4.58 80.88-4 81.61-3.71 82.34-3.42 83.2-3.42L83.2-3.42Q83.85-3.42 84.55-3.58 85.25-3.74 86.04-4.14 86.83-4.54 87.72-5.22 88.62-5.91 89.69-6.98L89.69-6.98Z" opacity="1" transform="matrix(1,0,0,1,0,0)" fill="#ffffff" class="wordmark-text-0" data-fill-palette-color="primary" id="text-0"></path></svg></g></svg></g><g transform="matrix(1,0,0,1,0,320.38388992942663)"><svg viewBox="0 0 395.52 146.21777827543175" height="146.21777827543175" width="395.52"><path d="M395.52 0l-24.37 73.109 24.37 73.109h-395.52l24.37-73.109-24.37-73.109z" data-fill-palette-color="tertiary" opacity="1" fill="#ffffff"></path><g transform="matrix(1,0,0,1,75.54431999999998,51.37713170853235)"><svg width="244.43136" viewBox="5.7 -37.1 210.03 37.35" height="43.463514858367056" data-palette-color="#ffffff"><path d="M9.4-3.2L30.45-3.2 30.45 0 5.7 0 5.7-35 29.7-35 29.7-31.8 9.4-31.8 9.4-19.35 27.5-19.35 27.5-16.2 9.4-16.2 9.4-3.2ZM51.8-26.5Q56.75-26.5 59.67-23.63 62.6-20.75 62.6-15.25L62.6-15.25 62.6 0 59.05 0 59.05-14.9Q59.05-19 57-21.15 54.95-23.3 51.15-23.3L51.15-23.3Q46.9-23.3 44.42-20.78 41.95-18.25 41.95-13.8L41.95-13.8 41.95 0 38.4 0 38.4-26.3 41.8-26.3 41.8-21.45Q43.25-23.85 45.82-25.18 48.4-26.5 51.8-26.5L51.8-26.5ZM93.05 0L89 0 80.65-11 72.25 0 68.25 0 78.65-13.5 68.75-26.3 72.75-26.3 80.65-16 88.55-26.3 92.45-26.3 82.55-13.5 93.05 0ZM108.74 0.25Q104.94 0.25 101.89-1.48 98.84-3.2 97.09-6.25 95.34-9.3 95.34-13.15L95.34-13.15Q95.34-17 97.09-20.05 98.84-23.1 101.89-24.8 104.94-26.5 108.74-26.5L108.74-26.5Q112.54-26.5 115.59-24.8 118.64-23.1 120.37-20.05 122.09-17 122.09-13.15L122.09-13.15Q122.09-9.3 120.37-6.25 118.64-3.2 115.59-1.48 112.54 0.25 108.74 0.25L108.74 0.25ZM108.74-2.9Q111.54-2.9 113.77-4.17 115.99-5.45 117.24-7.8 118.49-10.15 118.49-13.15L118.49-13.15Q118.49-16.15 117.24-18.5 115.99-20.85 113.77-22.13 111.54-23.4 108.74-23.4L108.74-23.4Q105.94-23.4 103.72-22.13 101.49-20.85 100.22-18.5 98.94-16.15 98.94-13.15L98.94-13.15Q98.94-10.15 100.22-7.8 101.49-5.45 103.72-4.17 105.94-2.9 108.74-2.9L108.74-2.9ZM147.19-26.3L150.69-26.3 138.99 0 135.34 0 123.69-26.3 127.39-26.3 137.24-3.9 147.19-26.3ZM164.09-26.5Q169.24-26.5 171.99-23.93 174.74-21.35 174.74-16.3L174.74-16.3 174.74 0 171.34 0 171.34-4.1Q170.14-2.05 167.81-0.9 165.49 0.25 162.29 0.25L162.29 0.25Q157.89 0.25 155.29-1.85 152.69-3.95 152.69-7.4L152.69-7.4Q152.69-10.75 155.11-12.8 157.54-14.85 162.84-14.85L162.84-14.85 171.19-14.85 171.19-16.45Q171.19-19.85 169.29-21.63 167.39-23.4 163.74-23.4L163.74-23.4Q161.24-23.4 158.94-22.58 156.64-21.75 154.99-20.3L154.99-20.3 153.39-22.95Q155.39-24.65 158.19-25.58 160.99-26.5 164.09-26.5L164.09-26.5ZM162.84-2.55Q165.84-2.55 167.99-3.93 170.14-5.3 171.19-7.9L171.19-7.9 171.19-12.2 162.94-12.2Q156.19-12.2 156.19-7.5L156.19-7.5Q156.19-5.2 157.94-3.88 159.69-2.55 162.84-2.55L162.84-2.55ZM184.38 0L184.38-26.3 187.94-26.3 187.94 0 184.38 0ZM186.19-32.05Q185.09-32.05 184.34-32.8 183.59-33.55 183.59-34.6L183.59-34.6Q183.59-35.6 184.34-36.35 185.09-37.1 186.19-37.1L186.19-37.1Q187.28-37.1 188.03-36.38 188.78-35.65 188.78-34.65L188.78-34.65Q188.78-33.55 188.03-32.8 187.28-32.05 186.19-32.05L186.19-32.05ZM204.88 0.25Q201.68 0.25 198.76-0.68 195.83-1.6 194.18-3L194.18-3 195.78-5.8Q197.43-4.5 199.93-3.68 202.43-2.85 205.13-2.85L205.13-2.85Q208.73-2.85 210.46-3.98 212.18-5.1 212.18-7.15L212.18-7.15Q212.18-8.6 211.23-9.43 210.28-10.25 208.83-10.68 207.38-11.1 204.98-11.5L204.98-11.5Q201.78-12.1 199.83-12.73 197.88-13.35 196.51-14.85 195.13-16.35 195.13-19L195.13-19Q195.13-22.3 197.88-24.4 200.63-26.5 205.53-26.5L205.53-26.5Q208.08-26.5 210.63-25.83 213.18-25.15 214.83-24.05L214.83-24.05 213.28-21.2Q210.03-23.45 205.53-23.45L205.53-23.45Q202.13-23.45 200.41-22.25 198.68-21.05 198.68-19.1L198.68-19.1Q198.68-17.6 199.66-16.7 200.63-15.8 202.08-15.38 203.53-14.95 206.08-14.5L206.08-14.5Q209.23-13.9 211.13-13.3 213.03-12.7 214.38-11.25 215.73-9.8 215.73-7.25L215.73-7.25Q215.73-3.8 212.86-1.78 209.98 0.25 204.88 0.25L204.88 0.25Z" opacity="1" transform="matrix(1,0,0,1,0,0)" fill="#000000" class="slogan-text-1" data-fill-palette-color="quaternary" id="text-1"></path></svg></g></svg></g></svg></g></svg></g><g transform="matrix(1,0,0,1,75.54432,517.9787999133907)"><svg viewBox="0 0 244.43135999999998 194.26450274656287" height="194.26450274656287" width="244.43135999999998"><g><svg xmlns="http://www.w3.org/2000/svg" xmlns:xlink="http://www.w3.org/1999/xlink" version="1.1" x="0" y="0" viewBox="5.824263667921373 14.897 88.33473633207862 70.20499999999998" enable-background="new 0 0 100 100" xml:space="preserve" height="194.26450274656287" width="244.43135999999998" class="icon-icon-0" data-fill-palette-color="accent" id="icon-0"><path d="M92.84 60.368c0.964-1.897-0.129-3.859-2.096-7.326l-4.995-8.843c-1.294-2.325-2.376-4.239-3.897-5.574 1.618-1.575 2.62-3.729 2.62-6.103V23.61c0-4.805-4.106-8.713-9.153-8.713H23.715c-5.043 0-9.146 3.909-9.146 8.713v8.912c0 2.429 1.046 4.627 2.729 6.211-1.412 1.29-2.481 3.129-3.739 5.455l-4.947 8.771c-2.246 3.581-3.483 5.555-2.376 7.555 0.117 0.212 0.252 0.397 0.398 0.571-0.493 0.813-0.792 1.758-0.792 2.778v15.885c0 2.952 2.38 5.354 5.306 5.354h77.705c2.926 0 5.306-2.402 5.306-5.354V63.863C94.158 62.521 93.65 61.309 92.84 60.368zM82.067 46.327c-21.406 1.555-30.316-2.027-37.339-5.075h30.59c0.742 0 1.459-0.094 2.15-0.253 1.802 0.428 2.608 1.753 4.571 5.28L82.067 46.327zM44.612 32.829c0.589 2.145 0.351 2.764 0.368 2.771-0.036 0.022-0.333 0.184-1.397 0.184-0.837 0-1.849-0.092-3.021-0.2l-0.651-0.059-7.709 0.361c-5.598-0.002-7.307-0.443-7.819-0.679 0.009-0.188 0.039-0.454 0.062-0.665 0.049-0.435 0.104-0.926 0.108-1.486l0.036-0.79c0-0.901-0.205-1.781-0.403-2.632-0.113-0.484-0.29-1.245-0.297-1.648 0.163-0.042 0.461-0.092 0.961-0.092 1.089 0 2.63 0.232 4.579 0.689l0.24 0.056h8.47l0.409-0.04c2.159-0.423 3.853-0.638 5.036-0.638 0.581 0 0.931 0.053 1.126 0.099-0.011 0.294-0.078 0.747-0.126 1.074C44.427 30.19 44.232 31.505 44.612 32.829zM76.395 33.29c0.587 2.143 0.347 2.759 0.363 2.766-0.035 0.022-0.332 0.185-1.4 0.185-0.836 0-1.847-0.093-3.017-0.2l-0.652-0.059-7.72 0.361c-5.576-0.002-7.291-0.438-7.809-0.673 0.01-0.187 0.039-0.448 0.062-0.657 0.047-0.414 0.105-0.926 0.109-1.489l0.04-0.795c0-0.904-0.205-1.786-0.403-2.639-0.112-0.484-0.289-1.245-0.297-1.649 0.163-0.042 0.462-0.092 0.962-0.092 1.091 0 2.634 0.232 4.586 0.69l0.239 0.056h8.444l0.408-0.04c2.167-0.424 3.866-0.639 5.052-0.639 0.58 0 0.931 0.052 1.126 0.098-0.011 0.294-0.077 0.745-0.125 1.071C76.208 30.644 76.015 31.961 76.395 33.29zM18.82 23.61c0-2.46 2.196-4.461 4.895-4.461h51.604c2.702 0 4.901 2.001 4.901 4.461v2.676c-0.113-0.197-0.245-0.391-0.407-0.578-1.196-1.385-3.112-1.545-4.449-1.545-1.438 0-3.293 0.222-5.664 0.679h-7.751c-2.188-0.502-3.928-0.746-5.314-0.746-2.043 0-3.469 0.544-4.357 1.663-1.299 1.636-0.828 3.664-0.449 5.292 0.139 0.597 0.282 1.213 0.292 1.629l-0.039 0.78c0 0.347-0.04 0.699-0.082 1.072-0.067 0.592-0.141 1.302-0.021 2.033h-2.886c0.384-1.579 0.031-3.37-0.385-4.886-0.132-0.462-0.022-1.205 0.084-1.924 0.193-1.305 0.458-3.093-0.756-4.5-1.196-1.387-3.113-1.547-4.45-1.547-1.436 0-3.286 0.222-5.649 0.677h-7.775c-2.185-0.501-3.923-0.746-5.309-0.746-2.043 0-3.468 0.544-4.356 1.664-1.3 1.637-0.828 3.664-0.449 5.293 0.139 0.597 0.283 1.213 0.292 1.626L20.301 33c0 0.345-0.04 0.696-0.081 1.067-0.05 0.446-0.1 0.96-0.074 1.498-0.815-0.8-1.325-1.865-1.325-3.042V23.61zM12.265 55.133l5.015-8.888c1.855-3.427 2.724-4.757 4.417-5.214 0.65 0.141 1.324 0.221 2.018 0.221h9.666c1.907 0.493 5.024 1.522 9.066 3.645 5.83 3.061 13.896 6.048 30.079 6.048 3.527 0 7.461-0.167 11.848-0.536l2.67 4.728c0.637 1.122 1.337 2.355 1.683 3.138-1.436 0.232-4.629 0.232-8.228 0.232H18.814c-3.658 0-6.911 0-8.431-0.223C10.789 57.491 11.546 56.281 12.265 55.133zM89.906 79.748c0 0.608-0.473 1.103-1.054 1.103H11.147c-0.581 0-1.054-0.494-1.054-1.103V63.863c0-0.609 0.473-1.104 1.054-1.104h7.667 61.684 8.354c0.581 0 1.054 0.495 1.054 1.104V79.748z" fill="#ffffff" data-fill-palette-color="accent"></path></svg></g></svg></g><g></g></svg></g><defs></defs></svg><rect width="137.27407984723382" height="247.2" fill="none" stroke="none" visibility="hidden"></rect></g></svg></g></svg>